<svg xmlns="http://www.w3.org/2000/svg" xmlns:xlink="http://www.w3.org/1999/xlink" viewBox="0 0 47.68 47.68"><defs><style>.Style-graphique{fill:url(#a);}.a{fill:url(#b);}.b{fill:url(#c);}.c{fill:url(#d);}.d{fill:#fff;}</style><radialGradient id="a" cx="23.55" cy="23.49" r="23.99" gradientUnits="userSpaceOnUse"><stop offset="0" stop-color="#00b401"/><stop offset="1" stop-color="#003c01"/></radialGradient><radialGradient id="b" cx="23.5" cy="23.5" r="23.92" xlink:href="#a"/><radialGradient id="c" cx="23.48" cy="23.53" r="23.94" xlink:href="#a"/><radialGradient id="d" cx="23.47" cy="23.51" r="23.89" xlink:href="#a"/></defs><path class="Style-graphique" d="M45.8,28.3a1.38,1.38,0,0,1-1.5-1.25V20a1.35,1.35,0,0,1,1.3-1.4h1.29a23.64,23.64,0,0,0-3.53-8.36l-.86.86a1.39,1.39,0,0,1-1.9,0L35.7,6.2a1.39,1.39,0,0,1,0-1.9l.92-.74A23.6,23.6,0,0,0,28.3.13V1.3A1.37,1.37,0,0,1,27,2.7H19.9a1.35,1.35,0,0,1-1.3-1.4V.17a23.64,23.64,0,0,0-8.25,3.48l.75.75a1.39,1.39,0,0,1,0,1.9L6.2,11.2a1.39,1.39,0,0,1-1.9,0l-.69-.77A23.9,23.9,0,0,0,.19,18.7H1.3A1.28,1.28,0,0,1,2.6,20a.48.48,0,0,1,0,.12v7a1.32,1.32,0,0,1-1.3,1.3H.21a23.81,23.81,0,0,0,3.45,8.24l.74-.74a1.39,1.39,0,0,1,1.9,0l4.9,4.9a1.39,1.39,0,0,1,0,1.9l-.78.7a23.55,23.55,0,0,0,8.28,3.45V45.7A1.35,1.35,0,0,1,20,44.3h7a1.37,1.37,0,0,1,1.4,1.34v1.21a23.51,23.51,0,0,0,8.29-3.46l-.79-.79a1.39,1.39,0,0,1,0-1.9l4.9-4.9a1.39,1.39,0,0,1,1.9,0l.78.78a23.78,23.78,0,0,0,3.43-8.28ZM23.5,42A18.5,18.5,0,1,1,42,23.5,18.5,18.5,0,0,1,23.5,42Z" transform="translate(0.29 0.34)"/><path class="a" d="M23.5,7A16.5,16.5,0,1,0,40,23.5,16.5,16.5,0,0,0,23.5,7ZM20.17,31.3v2.32H17.68V31.5h-2v2.09H13.17v-2H9.75V29.5l2.09-.43V17.85L9.75,17.5v-2h3.42V13.38h2.44v2h2.07v-2h2.46v2.25a3.73,3.73,0,0,1,3.15,3.66,3.38,3.38,0,0,1-2.57,3.61,3.78,3.78,0,0,1,3.42,3.89C24.08,30.34,20.17,31.3,20.17,31.3Zm12.5.31H32.5v2h-3V31.56c-2.59,0-4.89-2.89-4.89-5.3l3.1-.25c0,1.31,1,3,3.55,3s3-1.59,3-2.19c0-3.28-9.12-.79-9.12-7.16A4.45,4.45,0,0,1,29.5,15.5V13.38h3V15.5a4.71,4.71,0,0,1,4.39,4.63H33.75c0-.9-.89-2.16-2.94-2.16-1.66,0-2.65.64-2.65,1.58,0,2.87,9.19,1,9.19,7A4.88,4.88,0,0,1,32.67,31.61Z" transform="translate(0.29 0.34)"/><path class="b" d="M20.6,26.62c0,1.94-2.31,2.12-2.31,2.12H15.5V24.5h3S20.6,24.68,20.6,26.62Z" transform="translate(0.29 0.34)"/><path class="c" d="M19.83,19.9a2.18,2.18,0,0,1-1.73,2H15.5V18.26h2.43S19.83,18.3,19.83,19.9Z" transform="translate(0.29 0.34)"/><path class="d" d="M11.1,6.3,6.2,11.2a1.39,1.39,0,0,1-1.9,0l-.69-.77a23.66,23.66,0,0,1,6.74-6.78l.75.75A1.39,1.39,0,0,1,11.1,6.3Z" transform="translate(0.29 0.34)"/><path class="d" d="M2.6,20a.48.48,0,0,1,0,.12v7a1.32,1.32,0,0,1-1.3,1.3H.21a24,24,0,0,1-.5-4.9,24.49,24.49,0,0,1,.48-4.8H1.3A1.28,1.28,0,0,1,2.6,20Z" transform="translate(0.29 0.34)"/><path class="d" d="M11.2,42.7l-.78.7a23.79,23.79,0,0,1-6.76-6.76l.74-.74a1.39,1.39,0,0,1,1.9,0l4.9,4.9A1.39,1.39,0,0,1,11.2,42.7Z" transform="translate(0.29 0.34)"/><path class="d" d="M28.4,45.64v1.21a24.25,24.25,0,0,1-9.7,0V45.7A1.35,1.35,0,0,1,20,44.3h7A1.37,1.37,0,0,1,28.4,45.64Z" transform="translate(0.29 0.34)"/><path class="d" d="M43.48,36.58a23.81,23.81,0,0,1-6.79,6.81l-.79-.79a1.39,1.39,0,0,1,0-1.9l4.9-4.9a1.39,1.39,0,0,1,1.9,0Z" transform="translate(0.29 0.34)"/><path class="d" d="M47.39,23.5a24.49,24.49,0,0,1-.48,4.8H45.8a1.38,1.38,0,0,1-1.5-1.25V20a1.35,1.35,0,0,1,1.3-1.4h1.29A24,24,0,0,1,47.39,23.5Z" transform="translate(0.29 0.34)"/><path class="d" d="M43.36,10.24l-.86.86a1.39,1.39,0,0,1-1.9,0L35.7,6.2a1.39,1.39,0,0,1,0-1.9l.92-.74A23.69,23.69,0,0,1,43.36,10.24Z" transform="translate(0.29 0.34)"/><path class="d" d="M28.3.13V1.3A1.37,1.37,0,0,1,27,2.7H19.9a1.35,1.35,0,0,1-1.3-1.4V.17a24.44,24.44,0,0,1,4.95-.51A24,24,0,0,1,28.3.13Z" transform="translate(0.29 0.34)"/><path class="d" d="M23.5,5A18.5,18.5,0,1,0,42,23.5,18.5,18.5,0,0,0,23.5,5Zm0,35A16.5,16.5,0,1,1,40,23.5,16.5,16.5,0,0,1,23.5,40Z" transform="translate(0.29 0.34)"/><path class="d" d="M37.35,26.55a4.88,4.88,0,0,1-4.68,5.06H32.5v2h-3V31.56c-2.59,0-4.89-2.89-4.89-5.3l3.1-.25c0,1.31,1,3,3.55,3s3-1.59,3-2.19c0-3.28-9.12-.79-9.12-7.16A4.45,4.45,0,0,1,29.5,15.5V13.38h3V15.5a4.71,4.71,0,0,1,4.39,4.63H33.75c0-.9-.89-2.16-2.94-2.16-1.66,0-2.65.64-2.65,1.58C28.16,22.42,37.35,20.55,37.35,26.55Z" transform="translate(0.29 0.34)"/><path class="d" d="M20.72,22.9a3.38,3.38,0,0,0,2.57-3.61,3.73,3.73,0,0,0-3.15-3.66V13.38H17.68v2H15.61v-2H13.17V15.5H9.75v2l2.09.35V29.07l-2.09.43v2.05h3.42v2h2.51V31.5h2v2.12h2.49V31.3s3.91-1,4-4.51A3.78,3.78,0,0,0,20.72,22.9ZM15.5,18.26h2.43s1.9,0,1.9,1.64a2.18,2.18,0,0,1-1.73,2H15.5Zm2.79,10.48H15.5V24.5h3s2.1.18,2.1,2.12S18.29,28.74,18.29,28.74Z" transform="translate(0.29 0.34)"/></svg>