<?xml version="1.0" encoding="utf-8"?>
<!-- Generator: Adobe Illustrator 24.3.0, SVG Export Plug-In . SVG Version: 6.00 Build 0)  -->
<svg version="1.1" id="Calque_1" xmlns="http://www.w3.org/2000/svg" xmlns:xlink="http://www.w3.org/1999/xlink" x="0px" y="0px"
	 viewBox="0 0 47.7 47.7" style="enable-background:new 0 0 47.7 47.7;" xml:space="preserve">
<style type="text/css">
	.st0{fill:url(#SVGID_1_);}
	.st1{fill:url(#SVGID_2_);}
	.st2{fill:url(#SVGID_3_);}
	.st3{fill:url(#SVGID_4_);}
	.st4{fill:#FFFFFF;}
</style>
<radialGradient id="SVGID_1_" cx="23.55" cy="26.5" r="23.9951" gradientTransform="matrix(1 0 0 -1 0.29 50.34)" gradientUnits="userSpaceOnUse">
	<stop  offset="0" style="stop-color:#00B401"/>
	<stop  offset="1" style="stop-color:#003C01"/>
</radialGradient>
<path class="st0" d="M46.1,28.6c-0.8,0.1-1.4-0.5-1.5-1.2c0,0,0,0,0,0v-7c0-0.7,0.6-1.4,1.3-1.4c0,0,0,0,0,0h1.3
	c-0.6-3-1.8-5.8-3.5-8.4l-0.9,0.9c-0.5,0.5-1.4,0.5-1.9,0L36,6.5c-0.5-0.5-0.5-1.4,0-1.9l0.9-0.7c-2.5-1.7-5.4-2.8-8.3-3.4v1.2
	C28.6,2.4,28,3,27.3,3h-7.1c-0.7,0-1.3-0.7-1.3-1.4c0,0,0,0,0,0V0.5c-2.9,0.6-5.7,1.8-8.3,3.5l0.8,0.8c0.5,0.5,0.5,1.4,0,1.9
	l-4.9,4.9C6,12,5.1,12,4.6,11.5l-0.7-0.8c-1.7,2.5-2.8,5.3-3.4,8.3h1.1c0.7,0,1.3,0.6,1.3,1.3c0,0,0,0,0,0c0,0,0,0.1,0,0.1v7
	c0,0.7-0.6,1.3-1.3,1.3H0.5C1.1,31.7,2.3,34.5,4,37l0.7-0.7c0.5-0.5,1.4-0.5,1.9,0l4.9,4.9c0.5,0.5,0.5,1.4,0,1.9l-0.8,0.7
	c2.5,1.7,5.3,2.8,8.3,3.5V46c0-0.7,0.6-1.4,1.3-1.4c0,0,0,0,0,0h7c0.8,0,1.4,0.6,1.4,1.3c0,0,0,0,0,0v1.2c3-0.6,5.8-1.8,8.3-3.5
	l-0.8-0.8c-0.5-0.5-0.5-1.4,0-1.9l4.9-4.9c0.5-0.5,1.4-0.5,1.9,0l0.8,0.8c1.7-2.5,2.8-5.3,3.4-8.3L46.1,28.6z M23.8,42.3
	c-10.2,0-18.5-8.3-18.5-18.5S13.6,5.3,23.8,5.3s18.5,8.3,18.5,18.5S34,42.3,23.8,42.3L23.8,42.3z"/>
<radialGradient id="SVGID_2_" cx="23.5" cy="26.5" r="23.92" gradientTransform="matrix(1 0 0 -1 0.29 50.34)" gradientUnits="userSpaceOnUse">
	<stop  offset="0" style="stop-color:#00B401"/>
	<stop  offset="1" style="stop-color:#003C01"/>
</radialGradient>
<path class="st1" d="M23.8,7.3c-9.1,0-16.5,7.4-16.5,16.5s7.4,16.5,16.5,16.5S40.3,33,40.3,23.8S32.9,7.3,23.8,7.3z M20.5,31.6V34
	H18v-2.1h-2v2.1h-2.5v-2H10v-2.1l2.1-0.4V18.2L10,17.8v-2h3.4v-2.1h2.4v2H18v-2h2.5V16c1.8,0.3,3.1,1.8,3.1,3.7
	c0.2,1.7-0.9,3.2-2.6,3.6c2,0.2,3.5,1.9,3.4,3.9C24.4,30.7,20.5,31.6,20.5,31.6z M33,31.9h-0.2v2h-3v-2.1c-2.6,0-4.9-2.9-4.9-5.3
	l3.1-0.2c0,1.3,1,3,3.5,3s3-1.6,3-2.2c0-3.3-9.1-0.8-9.1-7.2c0.2-2.3,2-4.1,4.4-4.2v-2.1h3v2.1c2.4,0.2,4.4,2.2,4.4,4.6H34
	c0-0.9-0.9-2.2-2.9-2.2c-1.7,0-2.6,0.6-2.6,1.6c0,2.9,9.2,1,9.2,7C37.7,29.6,35.6,31.8,33,31.9z"/>
<radialGradient id="SVGID_3_" cx="23.48" cy="26.47" r="23.94" gradientTransform="matrix(1 0 0 -1 0.29 50.34)" gradientUnits="userSpaceOnUse">
	<stop  offset="0" style="stop-color:#00B401"/>
	<stop  offset="1" style="stop-color:#003C01"/>
</radialGradient>
<path class="st2" d="M20.9,27c0,1.9-2.3,2.1-2.3,2.1h-2.8v-4.2h3C18.8,24.8,20.9,25,20.9,27z"/>
<radialGradient id="SVGID_4_" cx="23.47" cy="26.49" r="23.89" gradientTransform="matrix(1 0 0 -1 0.29 50.34)" gradientUnits="userSpaceOnUse">
	<stop  offset="0" style="stop-color:#00B401"/>
	<stop  offset="1" style="stop-color:#003C01"/>
</radialGradient>
<path class="st3" d="M20.1,20.2c-0.1,1-0.8,1.8-1.7,2h-2.6v-3.6h2.4C18.2,18.6,20.1,18.6,20.1,20.2z"/>
<path class="st4" d="M11.4,6.6l-4.9,4.9C6,12,5.1,12,4.6,11.5l-0.7-0.8C5.7,8.1,8,5.8,10.6,4l0.8,0.8C11.9,5.3,11.9,6.1,11.4,6.6z"
	/>
<path class="st4" d="M2.9,20.3c0,0,0,0.1,0,0.1v7c0,0.7-0.6,1.3-1.3,1.3H0.5C0.2,27.1,0,25.5,0,23.9c0-1.6,0.2-3.2,0.5-4.8h1.1
	C2.3,19,2.9,19.6,2.9,20.3C2.9,20.3,2.9,20.3,2.9,20.3z"/>
<path class="st4" d="M11.5,43l-0.8,0.7C8,42,5.7,39.7,3.9,37l0.7-0.7c0.5-0.5,1.4-0.5,1.9,0l4.9,4.9C12,41.7,12,42.5,11.5,43z"/>
<path class="st4" d="M28.7,46v1.2c-3.2,0.7-6.5,0.7-9.7,0V46c0-0.7,0.6-1.4,1.3-1.4c0,0,0,0,0,0h7C28,44.6,28.7,45.2,28.7,46
	C28.7,46,28.7,46,28.7,46z"/>
<path class="st4" d="M43.8,36.9c-1.8,2.7-4.1,5-6.8,6.8l-0.8-0.8c-0.5-0.5-0.5-1.4,0-1.9l4.9-4.9c0.5-0.5,1.4-0.5,1.9,0L43.8,36.9z"
	/>
<path class="st4" d="M47.7,23.8c0,1.6-0.2,3.2-0.5,4.8h-1.1c-0.8,0.1-1.4-0.5-1.5-1.2c0,0,0,0,0,0v-7c0-0.7,0.6-1.4,1.3-1.4
	c0,0,0,0,0,0h1.3C47.5,20.6,47.7,22.2,47.7,23.8z"/>
<path class="st4" d="M43.7,10.6l-0.9,0.9c-0.5,0.5-1.4,0.5-1.9,0L36,6.5c-0.5-0.5-0.5-1.4,0-1.9l0.9-0.7
	C39.6,5.6,41.9,7.9,43.7,10.6z"/>
<path class="st4" d="M28.6,0.5v1.2C28.6,2.4,28,3,27.3,3h-7.1c-0.7,0-1.3-0.7-1.3-1.4c0,0,0,0,0,0V0.5C20.5,0.2,22.2,0,23.8,0
	C25.4,0,27,0.2,28.6,0.5z"/>
<path class="st4" d="M23.8,5.3c-10.2,0-18.5,8.3-18.5,18.5s8.3,18.5,18.5,18.5s18.5-8.3,18.5-18.5S34,5.3,23.8,5.3z M23.8,40.3
	c-9.1,0-16.5-7.4-16.5-16.5S14.7,7.3,23.8,7.3s16.5,7.4,16.5,16.5S32.9,40.3,23.8,40.3L23.8,40.3z"/>
<path class="st4" d="M37.6,26.9c0.1,2.7-2,5-4.7,5.1h-0.2v2h-3v-2.1c-2.6,0-4.9-2.9-4.9-5.3l3.1-0.2c0,1.3,1,3,3.5,3s3-1.6,3-2.2
	c0-3.3-9.1-0.8-9.1-7.2c0.2-2.3,2-4.1,4.4-4.2v-2.1h3v2.1c2.4,0.2,4.4,2.2,4.4,4.6H34c0-0.9-0.9-2.2-2.9-2.2c-1.7,0-2.6,0.6-2.6,1.6
	C28.5,22.8,37.6,20.9,37.6,26.9z"/>
<path class="st4" d="M21,23.2c1.6-0.4,2.7-1.9,2.6-3.6c0-1.8-1.3-3.4-3.1-3.7v-2.2H18v2h-2.1v-2h-2.4v2.1H10v2l2.1,0.4v11.2L10,29.8
	v2h3.4v2H16v-2h2V34h2.5v-2.3c0,0,3.9-1,4-4.5C24.5,25.1,23,23.4,21,23.2z M15.8,18.6h2.4c0,0,1.9,0,1.9,1.6c-0.1,1-0.8,1.8-1.7,2
	h-2.6V18.6z M18.6,29.1h-2.8v-4.2h3c0,0,2.1,0.2,2.1,2.1S18.6,29.1,18.6,29.1z"/>
</svg>
